# xmcd
#
# Track frame offsets:
#	150
#	16459
#	30429
#	45513
#	59418
#	81996
#	97374
#	111788
#	131731
#	151380
#	172040
#
# Disc length: 2595 seconds
#
# Revision: 2
# Processed by: cddbd v1.5.1PL2 Copyright (c) Steve Scherf et al.
# Submitted via: EZCDDA 4.3.2
#
DISCID=920a210b
DTITLE=Xuxa - Arraia da Xuxa
DYEAR=1900
DGENRE=
TTITLE0=01 - Quadrilha Brasileira
TTITLE1=02- O Sanfoneiro So Tocava Isso
TTITLE2=03 - Pout Pourri - Capelinha de Melao - Chegou a Hora da Fogueira - Ca
TTITLE2=i Cai Balao
TTITLE3=04 - Sebastiana
TTITLE4=05 - Abc Do Sertao
TTITLE5=06 - Festa Do Interior
TTITLE6=07 - Pout Pourri - Isto e La com Santo Antonio - Pedro Antonio e Joao 
TTITLE6=Pula a Fogueira
TTITLE7=08 - Asa Branca
TTITLE8=09 - Pout Pourri - Sonho de Papel - Sao Joao na Roca - São Joao do Car
TTITLE8=neirinho
TTITLE9=10 - Olha Pro Ceu
TTITLE10=11 - Quadrilha Brasileira
EXTD=
EXTT0=
EXTT1=
EXTT2=
EXTT3=
EXTT4=
EXTT5=
EXTT6=
EXTT7=
EXTT8=
EXTT9=
EXTT10=
PLAYORDER=
